<?xml version="1.0" encoding="UTF-8" standalone="no"?>
<!DOCTYPE svg PUBLIC "-//W3C//DTD SVG 1.1//EN"
 "http://www.w3.org/Graphics/SVG/1.1/DTD/svg11.dtd">
<!-- Generated by graphviz version 2.43.0 (0)
 -->
<!-- Title: our_graph Pages: 1 -->
<svg width="668pt" height="227pt"
 viewBox="0.00 0.00 668.00 227.00" xmlns="http://www.w3.org/2000/svg" xmlns:xlink="http://www.w3.org/1999/xlink">
<g id="graph0" class="graph" transform="scale(1 1) rotate(0) translate(4 223)">
<title>our_graph</title>
<polygon fill="white" stroke="transparent" points="-4,4 -4,-223 664,-223 664,4 -4,4"/>
<!-- 2 -->
<g id="node1" class="node">
<title>2</title>
<ellipse fill="none" stroke="black" cx="226" cy="-165" rx="18" ry="18"/>
<text text-anchor="middle" x="226" y="-161.3" font-family="Helvetica,Arial,sans-serif" font-size="14.00">2</text>
</g>
<!-- 3 -->
<g id="node2" class="node">
<title>3</title>
<ellipse fill="none" stroke="black" cx="334" cy="-110" rx="18" ry="18"/>
<text text-anchor="middle" x="334" y="-106.3" font-family="Helvetica,Arial,sans-serif" font-size="14.00">3</text>
</g>
<!-- 2&#45;&gt;3 -->
<g id="edge1" class="edge">
<title>2&#45;&gt;3</title>
<path fill="none" stroke="black" d="M241.81,-155.69C247.98,-151.93 255.26,-147.63 262,-144 277.01,-135.92 294.25,-127.65 307.98,-121.28"/>
<polygon fill="black" stroke="black" points="309.65,-124.37 317.28,-117.01 306.73,-118.01 309.65,-124.37"/>
<text text-anchor="middle" x="280" y="-147.8" font-family="Helvetica,Arial,sans-serif" font-size="14.00">(9/26)</text>
</g>
<!-- 4 -->
<g id="node4" class="node">
<title>4</title>
<ellipse fill="none" stroke="black" cx="442" cy="-173" rx="18" ry="18"/>
<text text-anchor="middle" x="442" y="-169.3" font-family="Helvetica,Arial,sans-serif" font-size="14.00">4</text>
</g>
<!-- 3&#45;&gt;4 -->
<g id="edge8" class="edge">
<title>3&#45;&gt;4</title>
<path fill="none" stroke="black" d="M351.1,-116.37C365.89,-122.53 388.16,-132.58 406,-144 410.9,-147.14 415.88,-150.87 420.49,-154.6"/>
<polygon fill="black" stroke="black" points="418.39,-157.41 428.29,-161.18 422.9,-152.06 418.39,-157.41"/>
<text text-anchor="middle" x="388" y="-147.8" font-family="Helvetica,Arial,sans-serif" font-size="14.00">(1/20)</text>
</g>
<!-- 5 -->
<g id="node5" class="node">
<title>5</title>
<ellipse fill="none" stroke="black" cx="542" cy="-110" rx="18" ry="18"/>
<text text-anchor="middle" x="542" y="-106.3" font-family="Helvetica,Arial,sans-serif" font-size="14.00">5</text>
</g>
<!-- 3&#45;&gt;5 -->
<g id="edge7" class="edge">
<title>3&#45;&gt;5</title>
<path fill="none" stroke="black" d="M352.21,-110C388.05,-110 470.91,-110 513.95,-110"/>
<polygon fill="black" stroke="black" points="513.98,-113.5 523.98,-110 513.98,-106.5 513.98,-113.5"/>
<text text-anchor="middle" x="442" y="-113.8" font-family="Helvetica,Arial,sans-serif" font-size="14.00">(8/8)</text>
</g>
<!-- 7 -->
<g id="node6" class="node">
<title>7</title>
<ellipse fill="none" stroke="black" cx="642" cy="-87" rx="18" ry="18"/>
<text text-anchor="middle" x="642" y="-83.3" font-family="Helvetica,Arial,sans-serif" font-size="14.00">7</text>
</g>
<!-- 3&#45;&gt;7 -->
<g id="edge9" class="edge">
<title>3&#45;&gt;7</title>
<path fill="none" stroke="black" d="M351.86,-106.77C384.78,-100.65 460.02,-87.55 524,-83 539.96,-81.87 544,-82.61 560,-83 577.95,-83.44 598.13,-84.44 613.85,-85.32"/>
<polygon fill="black" stroke="black" points="613.76,-88.82 623.94,-85.91 614.16,-81.84 613.76,-88.82"/>
<text text-anchor="middle" x="492" y="-90.8" font-family="Helvetica,Arial,sans-serif" font-size="14.00">(0/1)</text>
</g>
<!-- 6 -->
<g id="node7" class="node">
<title>6</title>
<ellipse fill="none" stroke="black" cx="442" cy="-18" rx="18" ry="18"/>
<text text-anchor="middle" x="442" y="-14.3" font-family="Helvetica,Arial,sans-serif" font-size="14.00">6</text>
</g>
<!-- 3&#45;&gt;6 -->
<g id="edge10" class="edge">
<title>3&#45;&gt;6</title>
<path fill="none" stroke="black" d="M338.56,-92.4C342.97,-75.2 352.19,-49.54 370,-35 382.21,-25.04 399.3,-20.74 413.66,-18.96"/>
<polygon fill="black" stroke="black" points="414.33,-22.41 423.97,-18.03 413.7,-15.44 414.33,-22.41"/>
<text text-anchor="middle" x="388" y="-38.8" font-family="Helvetica,Arial,sans-serif" font-size="14.00">(0/24)</text>
</g>
<!-- 1 -->
<g id="node3" class="node">
<title>1</title>
<ellipse fill="none" stroke="black" cx="126" cy="-119" rx="18" ry="18"/>
<text text-anchor="middle" x="126" y="-115.3" font-family="Helvetica,Arial,sans-serif" font-size="14.00">1</text>
</g>
<!-- 1&#45;&gt;2 -->
<g id="edge4" class="edge">
<title>1&#45;&gt;2</title>
<path fill="none" stroke="black" d="M143.37,-124.66C156.27,-129.33 174.6,-136.39 190,-144 193.86,-145.91 197.86,-148.09 201.71,-150.32"/>
<polygon fill="black" stroke="black" points="199.93,-153.33 210.31,-155.46 203.53,-147.32 199.93,-153.33"/>
<text text-anchor="middle" x="176" y="-147.8" font-family="Helvetica,Arial,sans-serif" font-size="14.00">(8/8)</text>
</g>
<!-- 1&#45;&gt;3 -->
<g id="edge3" class="edge">
<title>1&#45;&gt;3</title>
<path fill="none" stroke="black" d="M144.21,-118.25C180.05,-116.68 262.91,-113.06 305.95,-111.18"/>
<polygon fill="black" stroke="black" points="306.15,-114.68 315.98,-110.74 305.84,-107.68 306.15,-114.68"/>
<text text-anchor="middle" x="226" y="-118.8" font-family="Helvetica,Arial,sans-serif" font-size="14.00">(0/10)</text>
</g>
<!-- 1&#45;&gt;4 -->
<g id="edge2" class="edge">
<title>1&#45;&gt;4</title>
<path fill="none" stroke="black" d="M136.64,-133.54C150.01,-152.07 176.17,-182.8 208,-192 292.6,-216.44 319.58,-201.88 406,-185 409.05,-184.4 412.2,-183.6 415.31,-182.7"/>
<polygon fill="black" stroke="black" points="416.46,-186 424.87,-179.57 414.28,-179.35 416.46,-186"/>
<text text-anchor="middle" x="280" y="-207.8" font-family="Helvetica,Arial,sans-serif" font-size="14.00">(0/13)</text>
</g>
<!-- 4&#45;&gt;2 -->
<g id="edge16" class="edge">
<title>4&#45;&gt;2</title>
<path fill="none" stroke="black" d="M423.77,-172.36C386.68,-170.97 299.02,-167.69 254.29,-166.02"/>
<polygon fill="black" stroke="black" points="254.27,-162.52 244.15,-165.64 254.01,-169.51 254.27,-162.52"/>
<text text-anchor="middle" x="334" y="-172.8" font-family="Helvetica,Arial,sans-serif" font-size="14.00">(0/2)</text>
</g>
<!-- 4&#45;&gt;5 -->
<g id="edge14" class="edge">
<title>4&#45;&gt;5</title>
<path fill="none" stroke="black" d="M455.82,-161.34C462.24,-155.78 470.28,-149.21 478,-144 490.2,-135.77 504.58,-127.89 516.52,-121.78"/>
<polygon fill="black" stroke="black" points="518.11,-124.9 525.49,-117.3 514.98,-118.64 518.11,-124.9"/>
<text text-anchor="middle" x="492" y="-147.8" font-family="Helvetica,Arial,sans-serif" font-size="14.00">(1/1)</text>
</g>
<!-- 4&#45;&gt;7 -->
<g id="edge15" class="edge">
<title>4&#45;&gt;7</title>
<path fill="none" stroke="black" d="M459.9,-170.36C490.87,-164.93 557.96,-150.38 606,-120 611.65,-116.43 617.19,-111.86 622.14,-107.27"/>
<polygon fill="black" stroke="black" points="624.67,-109.69 629.35,-100.18 619.76,-104.7 624.67,-109.69"/>
<text text-anchor="middle" x="542" y="-157.8" font-family="Helvetica,Arial,sans-serif" font-size="14.00">(0/7)</text>
</g>
<!-- 5&#45;&gt;7 -->
<g id="edge5" class="edge">
<title>5&#45;&gt;7</title>
<path fill="none" stroke="black" d="M559.62,-106.1C574.55,-102.6 596.72,-97.39 614.16,-93.3"/>
<polygon fill="black" stroke="black" points="615.36,-96.61 624.29,-90.92 613.76,-89.8 615.36,-96.61"/>
<text text-anchor="middle" x="592" y="-104.8" font-family="Helvetica,Arial,sans-serif" font-size="14.00">(0/7)</text>
</g>
<!-- 6&#45;&gt;7 -->
<g id="edge6" class="edge">
<title>6&#45;&gt;7</title>
<path fill="none" stroke="black" d="M460.19,-17.44C491.63,-17.23 559.45,-20.55 606,-50 612.33,-54 618.29,-59.4 623.45,-64.84"/>
<polygon fill="black" stroke="black" points="621.13,-67.5 630.37,-72.68 626.37,-62.86 621.13,-67.5"/>
<text text-anchor="middle" x="542" y="-33.8" font-family="Helvetica,Arial,sans-serif" font-size="14.00">(0/27)</text>
</g>
<!-- 0 -->
<g id="node8" class="node">
<title>0</title>
<ellipse fill="none" stroke="black" cx="18" cy="-119" rx="18" ry="18"/>
<text text-anchor="middle" x="18" y="-115.3" font-family="Helvetica,Arial,sans-serif" font-size="14.00">0</text>
</g>
<!-- 0&#45;&gt;2 -->
<g id="edge11" class="edge">
<title>0&#45;&gt;2</title>
<path fill="none" stroke="black" d="M33.52,-128.18C39.64,-131.7 46.97,-135.48 54,-138 102.75,-155.5 163.37,-161.68 197.77,-163.84"/>
<polygon fill="black" stroke="black" points="197.8,-167.35 207.98,-164.41 198.19,-160.36 197.8,-167.35"/>
<text text-anchor="middle" x="126" y="-161.8" font-family="Helvetica,Arial,sans-serif" font-size="14.00">(1/1)</text>
</g>
<!-- 0&#45;&gt;1 -->
<g id="edge12" class="edge">
<title>0&#45;&gt;1</title>
<path fill="none" stroke="black" d="M36.03,-119C52.62,-119 78.12,-119 97.57,-119"/>
<polygon fill="black" stroke="black" points="97.66,-122.5 107.66,-119 97.66,-115.5 97.66,-122.5"/>
<text text-anchor="middle" x="72" y="-122.8" font-family="Helvetica,Arial,sans-serif" font-size="14.00">(8/38)</text>
</g>
<!-- 0&#45;&gt;6 -->
<g id="edge13" class="edge">
<title>0&#45;&gt;6</title>
<path fill="none" stroke="black" d="M24.94,-102.34C37.74,-69.82 71.16,-1 125,-1 125,-1 125,-1 335,-1 362.26,-1 392.98,-6.55 414.3,-11.31"/>
<polygon fill="black" stroke="black" points="413.71,-14.76 424.24,-13.62 415.3,-7.95 413.71,-14.76"/>
<text text-anchor="middle" x="226" y="-4.8" font-family="Helvetica,Arial,sans-serif" font-size="14.00">(0/2)</text>
</g>
</g>
</svg>
