<?xml version="1.0" encoding="UTF-8" standalone="no"?>
<!DOCTYPE svg PUBLIC "-//W3C//DTD SVG 1.1//EN"
 "http://www.w3.org/Graphics/SVG/1.1/DTD/svg11.dtd">
<!-- Generated by graphviz version 2.43.0 (0)
 -->
<!-- Title: our_graph Pages: 1 -->
<svg width="576pt" height="332pt"
 viewBox="0.00 0.00 576.19 332.14" xmlns="http://www.w3.org/2000/svg" xmlns:xlink="http://www.w3.org/1999/xlink">
<g id="graph0" class="graph" transform="scale(1 1) rotate(0) translate(4 328.14)">
<title>our_graph</title>
<polygon fill="white" stroke="transparent" points="-4,4 -4,-328.14 572.19,-328.14 572.19,4 -4,4"/>
<!-- CSK -->
<g id="node1" class="node">
<title>CSK</title>
<ellipse fill="none" stroke="black" cx="431.59" cy="-167" rx="28.7" ry="28.7"/>
<text text-anchor="middle" x="431.59" y="-163.3" font-family="Helvetica,Arial,sans-serif" font-size="14.00">CSK</text>
</g>
<!-- T -->
<g id="node2" class="node">
<title>T</title>
<ellipse fill="none" stroke="black" cx="550.19" cy="-167" rx="18" ry="18"/>
<text text-anchor="middle" x="550.19" y="-163.3" font-family="Helvetica,Arial,sans-serif" font-size="14.00">T</text>
</g>
<!-- CSK&#45;&gt;T -->
<g id="edge1" class="edge">
<title>CSK&#45;&gt;T</title>
<path fill="none" stroke="black" d="M460.22,-167C478.8,-167 503.18,-167 521.72,-167"/>
<polygon fill="black" stroke="black" points="521.88,-170.5 531.88,-167 521.88,-163.5 521.88,-170.5"/>
<text text-anchor="middle" x="496.19" y="-170.8" font-family="Helvetica,Arial,sans-serif" font-size="14.00">(0/11)</text>
</g>
<!-- KKR -->
<g id="node3" class="node">
<title>KKR</title>
<ellipse fill="none" stroke="black" cx="431.59" cy="-92" rx="28.7" ry="28.7"/>
<text text-anchor="middle" x="431.59" y="-88.3" font-family="Helvetica,Arial,sans-serif" font-size="14.00">KKR</text>
</g>
<!-- KKR&#45;&gt;T -->
<g id="edge2" class="edge">
<title>KKR&#45;&gt;T</title>
<path fill="none" stroke="black" d="M456.18,-107.17C476.5,-120.24 505.65,-138.99 525.87,-152"/>
<polygon fill="black" stroke="black" points="524.17,-155.07 534.48,-157.53 527.96,-149.18 524.17,-155.07"/>
<text text-anchor="middle" x="496.19" y="-145.8" font-family="Helvetica,Arial,sans-serif" font-size="14.00">(0/13)</text>
</g>
<!-- DC -->
<g id="node4" class="node">
<title>DC</title>
<ellipse fill="none" stroke="black" cx="431.59" cy="-237" rx="23.3" ry="23.3"/>
<text text-anchor="middle" x="431.59" y="-233.3" font-family="Helvetica,Arial,sans-serif" font-size="14.00">DC</text>
</g>
<!-- DC&#45;&gt;T -->
<g id="edge3" class="edge">
<title>DC&#45;&gt;T</title>
<path fill="none" stroke="black" d="M452.1,-225.28C472.41,-213.09 504.21,-194 525.84,-181.01"/>
<polygon fill="black" stroke="black" points="527.65,-184.01 534.42,-175.86 524.04,-178.01 527.65,-184.01"/>
<text text-anchor="middle" x="496.19" y="-211.8" font-family="Helvetica,Arial,sans-serif" font-size="14.00">(0/14)</text>
</g>
<!-- KKR_DC -->
<g id="node5" class="node">
<title>KKR_DC</title>
<ellipse fill="none" stroke="black" cx="152" cy="-168" rx="46.29" ry="46.29"/>
<text text-anchor="middle" x="152" y="-164.3" font-family="Helvetica,Arial,sans-serif" font-size="14.00">KKR_DC</text>
</g>
<!-- KKR_DC&#45;&gt;KKR -->
<g id="edge5" class="edge">
<title>KKR_DC&#45;&gt;KKR</title>
<path fill="none" stroke="black" d="M195.35,-151.45C204.08,-148.38 213.27,-145.39 221.99,-143 293.11,-123.48 314.56,-133.83 384.99,-112 388.59,-110.88 392.28,-109.57 395.93,-108.15"/>
<polygon fill="black" stroke="black" points="397.5,-111.29 405.41,-104.24 394.83,-104.82 397.5,-111.29"/>
<text text-anchor="middle" x="303.49" y="-146.8" font-family="Helvetica,Arial,sans-serif" font-size="14.00">(0/4611686018427387903)</text>
</g>
<!-- KKR_DC&#45;&gt;DC -->
<g id="edge4" class="edge">
<title>KKR_DC&#45;&gt;DC</title>
<path fill="none" stroke="black" d="M198.17,-163.35C246.79,-160.33 325.17,-161.28 384.99,-190 390.73,-192.75 400.18,-202.1 409,-211.74"/>
<polygon fill="black" stroke="black" points="406.57,-214.28 415.84,-219.41 411.8,-209.62 406.57,-214.28"/>
<text text-anchor="middle" x="303.49" y="-193.8" font-family="Helvetica,Arial,sans-serif" font-size="14.00">(0/4611686018427387903)</text>
</g>
<!-- CSK_DC -->
<g id="node6" class="node">
<title>CSK_DC</title>
<ellipse fill="none" stroke="black" cx="152" cy="-278" rx="46.29" ry="46.29"/>
<text text-anchor="middle" x="152" y="-274.3" font-family="Helvetica,Arial,sans-serif" font-size="14.00">CSK_DC</text>
</g>
<!-- CSK_DC&#45;&gt;CSK -->
<g id="edge7" class="edge">
<title>CSK_DC&#45;&gt;CSK</title>
<path fill="none" stroke="black" d="M187.09,-247.56C197.62,-239.66 209.71,-231.98 221.99,-227 289.73,-199.52 318.08,-234.43 384.99,-205 391.33,-202.21 397.48,-198.27 403.11,-193.97"/>
<polygon fill="black" stroke="black" points="405.45,-196.57 410.94,-187.51 400.99,-191.17 405.45,-196.57"/>
<text text-anchor="middle" x="303.49" y="-230.8" font-family="Helvetica,Arial,sans-serif" font-size="14.00">(0/4611686018427387903)</text>
</g>
<!-- CSK_DC&#45;&gt;DC -->
<g id="edge6" class="edge">
<title>CSK_DC&#45;&gt;DC</title>
<path fill="none" stroke="black" d="M198.02,-272.57C244.85,-266.74 320.23,-256.84 384.99,-246 389.29,-245.28 393.8,-244.46 398.25,-243.62"/>
<polygon fill="black" stroke="black" points="399.22,-246.99 408.37,-241.65 397.89,-240.12 399.22,-246.99"/>
<text text-anchor="middle" x="303.49" y="-272.8" font-family="Helvetica,Arial,sans-serif" font-size="14.00">(0/4611686018427387903)</text>
</g>
<!-- CSK_KKR -->
<g id="node7" class="node">
<title>CSK_KKR</title>
<ellipse fill="none" stroke="black" cx="152" cy="-52" rx="51.99" ry="51.99"/>
<text text-anchor="middle" x="152" y="-48.3" font-family="Helvetica,Arial,sans-serif" font-size="14.00">CSK_KKR</text>
</g>
<!-- CSK_KKR&#45;&gt;CSK -->
<g id="edge9" class="edge">
<title>CSK_KKR&#45;&gt;CSK</title>
<path fill="none" stroke="black" d="M201.3,-68.69C208.19,-70.69 215.23,-72.54 221.99,-74 257.64,-81.68 355.25,-71.89 384.99,-93 399.91,-103.58 393.48,-114.37 402.99,-130 404.3,-132.15 405.71,-134.34 407.17,-136.51"/>
<polygon fill="black" stroke="black" points="404.35,-138.59 412.96,-144.77 410.08,-134.57 404.35,-138.59"/>
<text text-anchor="middle" x="303.49" y="-96.8" font-family="Helvetica,Arial,sans-serif" font-size="14.00">(0/4611686018427387903)</text>
</g>
<!-- CSK_KKR&#45;&gt;KKR -->
<g id="edge8" class="edge">
<title>CSK_KKR&#45;&gt;KKR</title>
<path fill="none" stroke="black" d="M203.84,-45.13C251.89,-40.57 325.3,-38.66 384.99,-59 390.68,-60.93 396.27,-63.84 401.47,-67.15"/>
<polygon fill="black" stroke="black" points="399.62,-70.13 409.82,-72.98 403.63,-64.39 399.62,-70.13"/>
<text text-anchor="middle" x="303.49" y="-62.8" font-family="Helvetica,Arial,sans-serif" font-size="14.00">(0/4611686018427387903)</text>
</g>
<!-- S -->
<g id="node8" class="node">
<title>S</title>
<ellipse fill="none" stroke="black" cx="18" cy="-168" rx="18" ry="18"/>
<text text-anchor="middle" x="18" y="-164.3" font-family="Helvetica,Arial,sans-serif" font-size="14.00">S</text>
</g>
<!-- S&#45;&gt;KKR_DC -->
<g id="edge10" class="edge">
<title>S&#45;&gt;KKR_DC</title>
<path fill="none" stroke="black" d="M36.26,-168C51.33,-168 74.07,-168 95.34,-168"/>
<polygon fill="black" stroke="black" points="95.62,-171.5 105.62,-168 95.62,-164.5 95.62,-171.5"/>
<text text-anchor="middle" x="68" y="-171.8" font-family="Helvetica,Arial,sans-serif" font-size="14.00">(0/0)</text>
</g>
<!-- S&#45;&gt;CSK_DC -->
<g id="edge11" class="edge">
<title>S&#45;&gt;CSK_DC</title>
<path fill="none" stroke="black" d="M32.63,-179.35C50.3,-194.08 81.94,-220.45 108.07,-242.22"/>
<polygon fill="black" stroke="black" points="106.06,-245.1 115.98,-248.82 110.54,-239.72 106.06,-245.1"/>
<text text-anchor="middle" x="68" y="-222.8" font-family="Helvetica,Arial,sans-serif" font-size="14.00">(0/2)</text>
</g>
<!-- S&#45;&gt;CSK_KKR -->
<g id="edge12" class="edge">
<title>S&#45;&gt;CSK_KKR</title>
<path fill="none" stroke="black" d="M32.14,-156.45C48.92,-141.7 78.87,-115.38 104.5,-92.86"/>
<polygon fill="black" stroke="black" points="107.09,-95.24 112.3,-86.01 102.47,-89.98 107.09,-95.24"/>
<text text-anchor="middle" x="68" y="-139.8" font-family="Helvetica,Arial,sans-serif" font-size="14.00">(0/0)</text>
</g>
</g>
</svg>
