<?xml version="1.0" encoding="UTF-8" standalone="no"?>
<!DOCTYPE svg PUBLIC "-//W3C//DTD SVG 1.1//EN"
 "http://www.w3.org/Graphics/SVG/1.1/DTD/svg11.dtd">
<!-- Generated by graphviz version 2.43.0 (0)
 -->
<!-- Title: our_graph Pages: 1 -->
<svg width="286pt" height="192pt"
 viewBox="0.00 0.00 286.00 191.90" xmlns="http://www.w3.org/2000/svg" xmlns:xlink="http://www.w3.org/1999/xlink">
<g id="graph0" class="graph" transform="scale(1 1) rotate(0) translate(4 187.9)">
<title>our_graph</title>
<polygon fill="white" stroke="transparent" points="-4,4 -4,-187.9 282,-187.9 282,4 -4,4"/>
<!-- 6 -->
<g id="node1" class="node">
<title>6</title>
<ellipse fill="none" stroke="black" cx="180" cy="-95.9" rx="18" ry="18"/>
<text text-anchor="middle" x="180" y="-92.2" font-family="Helvetica,Arial,sans-serif" font-size="14.00">6</text>
</g>
<!-- 7 -->
<g id="node2" class="node">
<title>7</title>
<ellipse fill="none" stroke="black" cx="260" cy="-95.9" rx="18" ry="18"/>
<text text-anchor="middle" x="260" y="-92.2" font-family="Helvetica,Arial,sans-serif" font-size="14.00">7</text>
</g>
<!-- 6&#45;&gt;7 -->
<g id="edge1" class="edge">
<title>6&#45;&gt;7</title>
<path fill="none" stroke="black" d="M198.31,-95.9C208.11,-95.9 220.58,-95.9 231.67,-95.9"/>
<polygon fill="black" stroke="black" points="231.74,-99.4 241.74,-95.9 231.74,-92.4 231.74,-99.4"/>
<text text-anchor="middle" x="220" y="-99.7" font-family="Helvetica,Arial,sans-serif" font-size="14.00">1</text>
</g>
<!-- 5 -->
<g id="node3" class="node">
<title>5</title>
<ellipse fill="none" stroke="black" cx="180" cy="-41.9" rx="18" ry="18"/>
<text text-anchor="middle" x="180" y="-38.2" font-family="Helvetica,Arial,sans-serif" font-size="14.00">5</text>
</g>
<!-- 5&#45;&gt;7 -->
<g id="edge2" class="edge">
<title>5&#45;&gt;7</title>
<path fill="none" stroke="black" d="M195.31,-51.81C206.74,-59.73 222.99,-70.97 236.21,-80.13"/>
<polygon fill="black" stroke="black" points="234.57,-83.25 244.78,-86.06 238.55,-77.49 234.57,-83.25"/>
<text text-anchor="middle" x="220" y="-73.7" font-family="Helvetica,Arial,sans-serif" font-size="14.00">4</text>
</g>
<!-- 4 -->
<g id="node4" class="node">
<title>4</title>
<ellipse fill="none" stroke="black" cx="180" cy="-149.9" rx="18" ry="18"/>
<text text-anchor="middle" x="180" y="-146.2" font-family="Helvetica,Arial,sans-serif" font-size="14.00">4</text>
</g>
<!-- 4&#45;&gt;7 -->
<g id="edge3" class="edge">
<title>4&#45;&gt;7</title>
<path fill="none" stroke="black" d="M195.31,-140C206.74,-132.08 222.99,-120.84 236.21,-111.68"/>
<polygon fill="black" stroke="black" points="238.55,-114.32 244.78,-105.75 234.57,-108.56 238.55,-114.32"/>
<text text-anchor="middle" x="220" y="-127.7" font-family="Helvetica,Arial,sans-serif" font-size="14.00">7</text>
</g>
<!-- 3 -->
<g id="node5" class="node">
<title>3</title>
<ellipse fill="none" stroke="black" cx="98" cy="-95.9" rx="18" ry="18"/>
<text text-anchor="middle" x="98" y="-92.2" font-family="Helvetica,Arial,sans-serif" font-size="14.00">3</text>
</g>
<!-- 3&#45;&gt;5 -->
<g id="edge5" class="edge">
<title>3&#45;&gt;5</title>
<path fill="none" stroke="black" d="M113.3,-86.25C125.17,-78.24 142.28,-66.69 156.06,-57.39"/>
<polygon fill="black" stroke="black" points="158.22,-60.15 164.55,-51.66 154.31,-54.35 158.22,-60.15"/>
<text text-anchor="middle" x="139" y="-75.7" font-family="Helvetica,Arial,sans-serif" font-size="14.00">∞</text>
</g>
<!-- 3&#45;&gt;4 -->
<g id="edge4" class="edge">
<title>3&#45;&gt;4</title>
<path fill="none" stroke="black" d="M115.12,-101.47C124.04,-104.93 135.08,-109.87 144,-115.9 149.71,-119.77 155.33,-124.61 160.33,-129.42"/>
<polygon fill="black" stroke="black" points="158.1,-132.14 167.62,-136.8 163.09,-127.23 158.1,-132.14"/>
<text text-anchor="middle" x="139" y="-119.7" font-family="Helvetica,Arial,sans-serif" font-size="14.00">∞</text>
</g>
<!-- 2 -->
<g id="node6" class="node">
<title>2</title>
<ellipse fill="none" stroke="black" cx="98" cy="-152.9" rx="18" ry="18"/>
<text text-anchor="middle" x="98" y="-149.2" font-family="Helvetica,Arial,sans-serif" font-size="14.00">2</text>
</g>
<!-- 2&#45;&gt;6 -->
<g id="edge7" class="edge">
<title>2&#45;&gt;6</title>
<path fill="none" stroke="black" d="M115.13,-146.57C124.04,-142.7 135.08,-137.27 144,-130.9 149.83,-126.74 155.57,-121.59 160.66,-116.52"/>
<polygon fill="black" stroke="black" points="163.2,-118.93 167.6,-109.29 158.15,-114.08 163.2,-118.93"/>
<text text-anchor="middle" x="139" y="-139.7" font-family="Helvetica,Arial,sans-serif" font-size="14.00">∞</text>
</g>
<!-- 2&#45;&gt;4 -->
<g id="edge6" class="edge">
<title>2&#45;&gt;4</title>
<path fill="none" stroke="black" d="M113.38,-162.65C122.11,-167.39 133.55,-171.56 144,-168.9 147.96,-167.9 151.95,-166.35 155.76,-164.55"/>
<polygon fill="black" stroke="black" points="157.52,-167.58 164.69,-159.77 154.22,-161.4 157.52,-167.58"/>
<text text-anchor="middle" x="139" y="-172.7" font-family="Helvetica,Arial,sans-serif" font-size="14.00">∞</text>
</g>
<!-- 1 -->
<g id="node7" class="node">
<title>1</title>
<ellipse fill="none" stroke="black" cx="98" cy="-38.9" rx="18" ry="18"/>
<text text-anchor="middle" x="98" y="-35.2" font-family="Helvetica,Arial,sans-serif" font-size="14.00">1</text>
</g>
<!-- 1&#45;&gt;6 -->
<g id="edge9" class="edge">
<title>1&#45;&gt;6</title>
<path fill="none" stroke="black" d="M116.35,-38.46C125.21,-38.97 135.81,-40.8 144,-45.9 146.89,-47.71 155.73,-60.34 163.8,-72.46"/>
<polygon fill="black" stroke="black" points="161.02,-74.6 169.44,-81.03 166.87,-70.75 161.02,-74.6"/>
<text text-anchor="middle" x="139" y="-49.7" font-family="Helvetica,Arial,sans-serif" font-size="14.00">∞</text>
</g>
<!-- 1&#45;&gt;5 -->
<g id="edge8" class="edge">
<title>1&#45;&gt;5</title>
<path fill="none" stroke="black" d="M107.66,-23.39C116.06,-10.55 129.63,4.62 144,-1.9 151.8,-5.44 158.54,-11.67 163.97,-18.18"/>
<polygon fill="black" stroke="black" points="161.33,-20.48 170.13,-26.38 166.93,-16.28 161.33,-20.48"/>
<text text-anchor="middle" x="139" y="-5.7" font-family="Helvetica,Arial,sans-serif" font-size="14.00">∞</text>
</g>
<!-- 0 -->
<g id="node8" class="node">
<title>0</title>
<ellipse fill="none" stroke="black" cx="18" cy="-95.9" rx="18" ry="18"/>
<text text-anchor="middle" x="18" y="-92.2" font-family="Helvetica,Arial,sans-serif" font-size="14.00">0</text>
</g>
<!-- 0&#45;&gt;3 -->
<g id="edge10" class="edge">
<title>0&#45;&gt;3</title>
<path fill="none" stroke="black" d="M36.31,-95.9C46.11,-95.9 58.58,-95.9 69.67,-95.9"/>
<polygon fill="black" stroke="black" points="69.74,-99.4 79.74,-95.9 69.74,-92.4 69.74,-99.4"/>
<text text-anchor="middle" x="58" y="-99.7" font-family="Helvetica,Arial,sans-serif" font-size="14.00">2</text>
</g>
<!-- 0&#45;&gt;2 -->
<g id="edge11" class="edge">
<title>0&#45;&gt;2</title>
<path fill="none" stroke="black" d="M32.94,-106.1C44.52,-114.55 61.2,-126.74 74.64,-136.56"/>
<polygon fill="black" stroke="black" points="72.77,-139.54 82.91,-142.61 76.9,-133.88 72.77,-139.54"/>
<text text-anchor="middle" x="58" y="-129.7" font-family="Helvetica,Arial,sans-serif" font-size="14.00">1</text>
</g>
<!-- 0&#45;&gt;1 -->
<g id="edge12" class="edge">
<title>0&#45;&gt;1</title>
<path fill="none" stroke="black" d="M32.94,-85.71C44.52,-77.26 61.2,-65.07 74.64,-55.25"/>
<polygon fill="black" stroke="black" points="76.9,-57.93 82.91,-49.2 72.77,-52.27 76.9,-57.93"/>
<text text-anchor="middle" x="58" y="-72.7" font-family="Helvetica,Arial,sans-serif" font-size="14.00">1</text>
</g>
</g>
</svg>
