<?xml version="1.0" encoding="UTF-8" standalone="no"?>
<!DOCTYPE svg PUBLIC "-//W3C//DTD SVG 1.1//EN"
 "http://www.w3.org/Graphics/SVG/1.1/DTD/svg11.dtd">
<!-- Generated by graphviz version 2.43.0 (0)
 -->
<!-- Title: our_graph Pages: 1 -->
<svg width="487pt" height="224pt"
 viewBox="0.00 0.00 487.00 224.05" xmlns="http://www.w3.org/2000/svg" xmlns:xlink="http://www.w3.org/1999/xlink">
<g id="graph0" class="graph" transform="scale(1 1) rotate(0) translate(4 220.05)">
<title>our_graph</title>
<polygon fill="white" stroke="transparent" points="-4,4 -4,-220.05 483,-220.05 483,4 -4,4"/>
<!-- 6 -->
<g id="node1" class="node">
<title>6</title>
<ellipse fill="none" stroke="black" cx="353" cy="-116.05" rx="18" ry="18"/>
<text text-anchor="middle" x="353" y="-112.35" font-family="Helvetica,Arial,sans-serif" font-size="14.00">6</text>
</g>
<!-- 7 -->
<g id="node2" class="node">
<title>7</title>
<ellipse fill="none" stroke="black" cx="461" cy="-116.05" rx="18" ry="18"/>
<text text-anchor="middle" x="461" y="-112.35" font-family="Helvetica,Arial,sans-serif" font-size="14.00">7</text>
</g>
<!-- 6&#45;&gt;7 -->
<g id="edge1" class="edge">
<title>6&#45;&gt;7</title>
<path fill="none" stroke="black" d="M371.03,-116.05C387.62,-116.05 413.12,-116.05 432.57,-116.05"/>
<polygon fill="black" stroke="black" points="432.66,-119.55 442.66,-116.05 432.66,-112.55 432.66,-119.55"/>
<text text-anchor="middle" x="407" y="-119.85" font-family="Helvetica,Arial,sans-serif" font-size="14.00">(0/11)</text>
</g>
<!-- 5 -->
<g id="node3" class="node">
<title>5</title>
<ellipse fill="none" stroke="black" cx="353" cy="-62.05" rx="18" ry="18"/>
<text text-anchor="middle" x="353" y="-58.35" font-family="Helvetica,Arial,sans-serif" font-size="14.00">5</text>
</g>
<!-- 5&#45;&gt;7 -->
<g id="edge2" class="edge">
<title>5&#45;&gt;7</title>
<path fill="none" stroke="black" d="M369.6,-69.52C384.05,-76.49 406.08,-87.26 425,-97.05 428.46,-98.84 432.09,-100.76 435.65,-102.67"/>
<polygon fill="black" stroke="black" points="434.28,-105.91 444.74,-107.59 437.61,-99.75 434.28,-105.91"/>
<text text-anchor="middle" x="407" y="-100.85" font-family="Helvetica,Arial,sans-serif" font-size="14.00">(0/13)</text>
</g>
<!-- 4 -->
<g id="node4" class="node">
<title>4</title>
<ellipse fill="none" stroke="black" cx="353" cy="-170.05" rx="18" ry="18"/>
<text text-anchor="middle" x="353" y="-166.35" font-family="Helvetica,Arial,sans-serif" font-size="14.00">4</text>
</g>
<!-- 4&#45;&gt;7 -->
<g id="edge3" class="edge">
<title>4&#45;&gt;7</title>
<path fill="none" stroke="black" d="M369.6,-162.58C384.05,-155.61 406.08,-144.84 425,-135.05 428.46,-133.26 432.09,-131.34 435.65,-129.43"/>
<polygon fill="black" stroke="black" points="437.61,-132.35 444.74,-124.5 434.28,-126.19 437.61,-132.35"/>
<text text-anchor="middle" x="407" y="-155.85" font-family="Helvetica,Arial,sans-serif" font-size="14.00">(0/14)</text>
</g>
<!-- 3 -->
<g id="node5" class="node">
<title>3</title>
<ellipse fill="none" stroke="black" cx="118" cy="-116.05" rx="18" ry="18"/>
<text text-anchor="middle" x="118" y="-112.35" font-family="Helvetica,Arial,sans-serif" font-size="14.00">3</text>
</g>
<!-- 3&#45;&gt;5 -->
<g id="edge5" class="edge">
<title>3&#45;&gt;5</title>
<path fill="none" stroke="black" d="M133.45,-106.67C139.56,-103.11 146.9,-99.37 154,-97.05 223.49,-74.35 246.08,-92.77 317,-75.05 320.21,-74.25 323.53,-73.25 326.78,-72.17"/>
<polygon fill="black" stroke="black" points="327.99,-75.45 336.2,-68.76 325.61,-68.87 327.99,-75.45"/>
<text text-anchor="middle" x="235.5" y="-100.85" font-family="Helvetica,Arial,sans-serif" font-size="14.00">(0/4611686018427387903)</text>
</g>
<!-- 3&#45;&gt;4 -->
<g id="edge4" class="edge">
<title>3&#45;&gt;4</title>
<path fill="none" stroke="black" d="M136.24,-116.35C178.29,-117.31 285.05,-121.17 317,-136.05 323.5,-139.08 329.53,-143.82 334.69,-148.81"/>
<polygon fill="black" stroke="black" points="332.18,-151.25 341.58,-156.14 337.27,-146.45 332.18,-151.25"/>
<text text-anchor="middle" x="235.5" y="-139.85" font-family="Helvetica,Arial,sans-serif" font-size="14.00">(0/4611686018427387903)</text>
</g>
<!-- 2 -->
<g id="node6" class="node">
<title>2</title>
<ellipse fill="none" stroke="black" cx="118" cy="-173.05" rx="18" ry="18"/>
<text text-anchor="middle" x="118" y="-169.35" font-family="Helvetica,Arial,sans-serif" font-size="14.00">2</text>
</g>
<!-- 2&#45;&gt;6 -->
<g id="edge7" class="edge">
<title>2&#45;&gt;6</title>
<path fill="none" stroke="black" d="M136.08,-171.46C182.64,-167.09 308.88,-154.95 317,-151.05 323.56,-147.9 329.6,-143 334.76,-137.86"/>
<polygon fill="black" stroke="black" points="337.48,-140.08 341.64,-130.33 332.31,-135.36 337.48,-140.08"/>
<text text-anchor="middle" x="235.5" y="-172.85" font-family="Helvetica,Arial,sans-serif" font-size="14.00">(0/4611686018427387903)</text>
</g>
<!-- 2&#45;&gt;4 -->
<g id="edge6" class="edge">
<title>2&#45;&gt;4</title>
<path fill="none" stroke="black" d="M134.18,-181.71C140.16,-184.65 147.21,-187.57 154,-189.05 224.79,-204.46 246.78,-206.88 317,-189.05 320.96,-188.04 324.95,-186.49 328.76,-184.7"/>
<polygon fill="black" stroke="black" points="330.52,-187.72 337.69,-179.92 327.22,-181.55 330.52,-187.72"/>
<text text-anchor="middle" x="235.5" y="-204.85" font-family="Helvetica,Arial,sans-serif" font-size="14.00">(0/4611686018427387903)</text>
</g>
<!-- 1 -->
<g id="node7" class="node">
<title>1</title>
<ellipse fill="none" stroke="black" cx="118" cy="-59.05" rx="18" ry="18"/>
<text text-anchor="middle" x="118" y="-55.35" font-family="Helvetica,Arial,sans-serif" font-size="14.00">1</text>
</g>
<!-- 1&#45;&gt;6 -->
<g id="edge9" class="edge">
<title>1&#45;&gt;6</title>
<path fill="none" stroke="black" d="M135.84,-56.6C177.96,-50.81 286.7,-38.06 317,-56.05 331.37,-64.58 326.55,-74.64 335,-89.05 335.66,-90.18 336.35,-91.33 337.04,-92.49"/>
<polygon fill="black" stroke="black" points="334.25,-94.62 342.48,-101.3 340.21,-90.95 334.25,-94.62"/>
<text text-anchor="middle" x="235.5" y="-59.85" font-family="Helvetica,Arial,sans-serif" font-size="14.00">(0/4611686018427387903)</text>
</g>
<!-- 1&#45;&gt;5 -->
<g id="edge8" class="edge">
<title>1&#45;&gt;5</title>
<path fill="none" stroke="black" d="M128.42,-44.29C134.58,-36.07 143.44,-26.6 154,-22.05 220.54,6.6 251.03,7.89 317,-22.05 324.8,-25.59 331.54,-31.82 336.97,-38.32"/>
<polygon fill="black" stroke="black" points="334.33,-40.63 343.13,-46.53 339.93,-36.43 334.33,-40.63"/>
<text text-anchor="middle" x="235.5" y="-25.85" font-family="Helvetica,Arial,sans-serif" font-size="14.00">(0/4611686018427387903)</text>
</g>
<!-- 0 -->
<g id="node8" class="node">
<title>0</title>
<ellipse fill="none" stroke="black" cx="18" cy="-116.05" rx="18" ry="18"/>
<text text-anchor="middle" x="18" y="-112.35" font-family="Helvetica,Arial,sans-serif" font-size="14.00">0</text>
</g>
<!-- 0&#45;&gt;3 -->
<g id="edge10" class="edge">
<title>0&#45;&gt;3</title>
<path fill="none" stroke="black" d="M36.07,-116.05C50.88,-116.05 72.57,-116.05 89.77,-116.05"/>
<polygon fill="black" stroke="black" points="89.8,-119.55 99.8,-116.05 89.8,-112.55 89.8,-119.55"/>
<text text-anchor="middle" x="68" y="-119.85" font-family="Helvetica,Arial,sans-serif" font-size="14.00">(0/0)</text>
</g>
<!-- 0&#45;&gt;2 -->
<g id="edge11" class="edge">
<title>0&#45;&gt;2</title>
<path fill="none" stroke="black" d="M33.88,-124.71C49.64,-133.87 74.74,-148.47 93.24,-159.23"/>
<polygon fill="black" stroke="black" points="91.57,-162.31 101.98,-164.31 95.09,-156.26 91.57,-162.31"/>
<text text-anchor="middle" x="68" y="-154.85" font-family="Helvetica,Arial,sans-serif" font-size="14.00">(0/2)</text>
</g>
<!-- 0&#45;&gt;1 -->
<g id="edge12" class="edge">
<title>0&#45;&gt;1</title>
<path fill="none" stroke="black" d="M33.88,-107.39C49.64,-98.23 74.74,-83.63 93.24,-72.87"/>
<polygon fill="black" stroke="black" points="95.09,-75.84 101.98,-67.79 91.57,-69.79 95.09,-75.84"/>
<text text-anchor="middle" x="68" y="-97.85" font-family="Helvetica,Arial,sans-serif" font-size="14.00">(0/0)</text>
</g>
</g>
</svg>
