<?xml version="1.0" encoding="UTF-8" standalone="no"?>
<!DOCTYPE svg PUBLIC "-//W3C//DTD SVG 1.1//EN"
 "http://www.w3.org/Graphics/SVG/1.1/DTD/svg11.dtd">
<!-- Generated by graphviz version 2.43.0 (0)
 -->
<!-- Title: our_graph Pages: 1 -->
<svg width="441pt" height="324pt"
 viewBox="0.00 0.00 441.19 324.39" xmlns="http://www.w3.org/2000/svg" xmlns:xlink="http://www.w3.org/1999/xlink">
<g id="graph0" class="graph" transform="scale(1 1) rotate(0) translate(4 320.39)">
<title>our_graph</title>
<polygon fill="white" stroke="transparent" points="-4,4 -4,-320.39 437.19,-320.39 437.19,4 -4,4"/>
<!-- MI -->
<g id="node1" class="node">
<title>MI</title>
<ellipse fill="none" stroke="black" cx="299.59" cy="-151.2" rx="20.6" ry="20.6"/>
<text text-anchor="middle" x="299.59" y="-147.5" font-family="Helvetica,Arial,sans-serif" font-size="14.00">MI</text>
</g>
<!-- T -->
<g id="node2" class="node">
<title>T</title>
<ellipse fill="none" stroke="black" cx="415.19" cy="-151.2" rx="18" ry="18"/>
<text text-anchor="middle" x="415.19" y="-147.5" font-family="Helvetica,Arial,sans-serif" font-size="14.00">T</text>
</g>
<!-- MI&#45;&gt;T -->
<g id="edge1" class="edge">
<title>MI&#45;&gt;T</title>
<path fill="none" stroke="black" d="M320.64,-151.2C338.99,-151.2 366.33,-151.2 386.71,-151.2"/>
<polygon fill="black" stroke="black" points="386.94,-154.7 396.94,-151.2 386.94,-147.7 386.94,-154.7"/>
<text text-anchor="middle" x="362.69" y="-155" font-family="Helvetica,Arial,sans-serif" font-size="14.00">(0/&#45;3)</text>
</g>
<!-- CSK -->
<g id="node3" class="node">
<title>CSK</title>
<ellipse fill="none" stroke="black" cx="299.59" cy="-84.2" rx="28.7" ry="28.7"/>
<text text-anchor="middle" x="299.59" y="-80.5" font-family="Helvetica,Arial,sans-serif" font-size="14.00">CSK</text>
</g>
<!-- CSK&#45;&gt;T -->
<g id="edge2" class="edge">
<title>CSK&#45;&gt;T</title>
<path fill="none" stroke="black" d="M324.68,-98.41C344.04,-109.83 371.11,-125.79 390.39,-137.16"/>
<polygon fill="black" stroke="black" points="388.78,-140.27 399.17,-142.34 392.33,-134.24 388.78,-140.27"/>
<text text-anchor="middle" x="362.69" y="-133" font-family="Helvetica,Arial,sans-serif" font-size="14.00">(0/0)</text>
</g>
<!-- KKR -->
<g id="node4" class="node">
<title>KKR</title>
<ellipse fill="none" stroke="black" cx="299.59" cy="-218.2" rx="28.7" ry="28.7"/>
<text text-anchor="middle" x="299.59" y="-214.5" font-family="Helvetica,Arial,sans-serif" font-size="14.00">KKR</text>
</g>
<!-- KKR&#45;&gt;T -->
<g id="edge3" class="edge">
<title>KKR&#45;&gt;T</title>
<path fill="none" stroke="black" d="M324.68,-203.99C344.04,-192.57 371.11,-176.61 390.39,-165.23"/>
<polygon fill="black" stroke="black" points="392.33,-168.15 399.17,-160.05 388.78,-162.12 392.33,-168.15"/>
<text text-anchor="middle" x="362.69" y="-194" font-family="Helvetica,Arial,sans-serif" font-size="14.00">(0/2)</text>
</g>
<!-- CSK_KKR -->
<g id="node5" class="node">
<title>CSK_KKR</title>
<ellipse fill="none" stroke="black" cx="152" cy="-158.2" rx="51.99" ry="51.99"/>
<text text-anchor="middle" x="152" y="-154.5" font-family="Helvetica,Arial,sans-serif" font-size="14.00">CSK_KKR</text>
</g>
<!-- CSK_KKR&#45;&gt;CSK -->
<g id="edge5" class="edge">
<title>CSK_KKR&#45;&gt;CSK</title>
<path fill="none" stroke="black" d="M198.66,-134.99C220.02,-124.13 245.01,-111.43 264.66,-101.44"/>
<polygon fill="black" stroke="black" points="266.51,-104.43 273.83,-96.78 263.33,-98.19 266.51,-104.43"/>
<text text-anchor="middle" x="237.49" y="-125" font-family="Helvetica,Arial,sans-serif" font-size="14.00">(0/∞)</text>
</g>
<!-- CSK_KKR&#45;&gt;KKR -->
<g id="edge4" class="edge">
<title>CSK_KKR&#45;&gt;KKR</title>
<path fill="none" stroke="black" d="M203.48,-166.59C219.78,-170.4 237.6,-175.77 252.99,-183.2 258.52,-185.86 264.02,-189.27 269.19,-192.91"/>
<polygon fill="black" stroke="black" points="267.43,-195.96 277.53,-199.15 271.62,-190.35 267.43,-195.96"/>
<text text-anchor="middle" x="237.49" y="-187" font-family="Helvetica,Arial,sans-serif" font-size="14.00">(0/∞)</text>
</g>
<!-- MI_KKR -->
<g id="node6" class="node">
<title>MI_KKR</title>
<ellipse fill="none" stroke="black" cx="152" cy="-272.2" rx="44.39" ry="44.39"/>
<text text-anchor="middle" x="152" y="-268.5" font-family="Helvetica,Arial,sans-serif" font-size="14.00">MI_KKR</text>
</g>
<!-- MI_KKR&#45;&gt;MI -->
<g id="edge7" class="edge">
<title>MI_KKR&#45;&gt;MI</title>
<path fill="none" stroke="black" d="M187.6,-245.81C198.55,-237.55 210.73,-228.43 221.99,-220.2 235.63,-210.22 240.17,-209.19 252.99,-198.2 255.73,-195.85 266.93,-184.31 277.55,-173.25"/>
<polygon fill="black" stroke="black" points="280.3,-175.43 284.69,-165.79 275.25,-170.59 280.3,-175.43"/>
<text text-anchor="middle" x="237.49" y="-224" font-family="Helvetica,Arial,sans-serif" font-size="14.00">(0/∞)</text>
</g>
<!-- MI_KKR&#45;&gt;KKR -->
<g id="edge6" class="edge">
<title>MI_KKR&#45;&gt;KKR</title>
<path fill="none" stroke="black" d="M194.72,-259.58C212.8,-253.82 234.11,-246.63 252.99,-239.2 256.52,-237.8 260.17,-236.28 263.8,-234.7"/>
<polygon fill="black" stroke="black" points="265.54,-237.76 273.24,-230.48 262.69,-231.37 265.54,-237.76"/>
<text text-anchor="middle" x="237.49" y="-253" font-family="Helvetica,Arial,sans-serif" font-size="14.00">(0/∞)</text>
</g>
<!-- MI_CSK -->
<g id="node7" class="node">
<title>MI_CSK</title>
<ellipse fill="none" stroke="black" cx="152" cy="-44.2" rx="44.39" ry="44.39"/>
<text text-anchor="middle" x="152" y="-40.5" font-family="Helvetica,Arial,sans-serif" font-size="14.00">MI_CSK</text>
</g>
<!-- MI_CSK&#45;&gt;MI -->
<g id="edge9" class="edge">
<title>MI_CSK&#45;&gt;MI</title>
<path fill="none" stroke="black" d="M195.05,-55.66C214.46,-62.59 236.74,-73.08 252.99,-88.2 265.51,-99.84 261,-108.32 270.99,-122.2 272.74,-124.63 274.69,-127.07 276.71,-129.43"/>
<polygon fill="black" stroke="black" points="274.4,-132.1 283.72,-137.13 279.57,-127.38 274.4,-132.1"/>
<text text-anchor="middle" x="237.49" y="-92" font-family="Helvetica,Arial,sans-serif" font-size="14.00">(0/∞)</text>
</g>
<!-- MI_CSK&#45;&gt;CSK -->
<g id="edge8" class="edge">
<title>MI_CSK&#45;&gt;CSK</title>
<path fill="none" stroke="black" d="M196.47,-40.14C214.46,-39.93 235.23,-41.63 252.99,-48.2 259.2,-50.49 265.22,-53.98 270.74,-57.89"/>
<polygon fill="black" stroke="black" points="268.92,-60.91 278.97,-64.28 273.22,-55.38 268.92,-60.91"/>
<text text-anchor="middle" x="237.49" y="-52" font-family="Helvetica,Arial,sans-serif" font-size="14.00">(0/∞)</text>
</g>
<!-- S -->
<g id="node8" class="node">
<title>S</title>
<ellipse fill="none" stroke="black" cx="18" cy="-158.2" rx="18" ry="18"/>
<text text-anchor="middle" x="18" y="-154.5" font-family="Helvetica,Arial,sans-serif" font-size="14.00">S</text>
</g>
<!-- S&#45;&gt;CSK_KKR -->
<g id="edge10" class="edge">
<title>S&#45;&gt;CSK_KKR</title>
<path fill="none" stroke="black" d="M36.26,-158.2C50,-158.2 70.12,-158.2 89.69,-158.2"/>
<polygon fill="black" stroke="black" points="89.84,-161.7 99.84,-158.2 89.84,-154.7 89.84,-161.7"/>
<text text-anchor="middle" x="68" y="-162" font-family="Helvetica,Arial,sans-serif" font-size="14.00">(0/0)</text>
</g>
<!-- S&#45;&gt;MI_KKR -->
<g id="edge11" class="edge">
<title>S&#45;&gt;MI_KKR</title>
<path fill="none" stroke="black" d="M32.14,-169.54C50.18,-185.13 83.43,-213.85 110.19,-236.95"/>
<polygon fill="black" stroke="black" points="108.04,-239.73 117.9,-243.61 112.62,-234.43 108.04,-239.73"/>
<text text-anchor="middle" x="68" y="-215" font-family="Helvetica,Arial,sans-serif" font-size="14.00">(0/6)</text>
</g>
<!-- S&#45;&gt;MI_CSK -->
<g id="edge12" class="edge">
<title>S&#45;&gt;MI_CSK</title>
<path fill="none" stroke="black" d="M32.14,-146.85C50.18,-131.27 83.43,-102.55 110.19,-79.44"/>
<polygon fill="black" stroke="black" points="112.62,-81.96 117.9,-72.78 108.04,-76.67 112.62,-81.96"/>
<text text-anchor="middle" x="68" y="-131" font-family="Helvetica,Arial,sans-serif" font-size="14.00">(0/1)</text>
</g>
</g>
</svg>
